# xmcd
#
# Track frame offsets: 
#        150
#        15526
#        27899
#        40351
#        52301
#        64736
#        76080
#        88700
#        97385
#        110472
#        123025
#        133680
#        146875
#        159456
#        171824
#        184333
#        197345
#        209633
#        221273
#        232308
#        244869
#        256610
#        270326
#        282727
#        295869
#        307937
#        318386
#        330575
#        342865
#
# Disc length: 4746 seconds
#
# Revision: 0
# Processed by: cddbd v1.5.2PL0 Copyright (c) Steve Scherf et al.
# Submitted via: ExactAudioCopyFreeDBPlugin 1.0
#
DISCID=b212881d
DTITLE=The jazz - Western swingin CD2
DYEAR=2011
DGENRE=Swing
TTITLE0=Milton Brown - St Louis blues
TTITLE1=W Lee O'Daniel - There'll be some changes made
TTITLE2=Bob Wills and his Texas playboys - White heat
TTITLE3=Cliff Bruner - Sugar
TTITLE4=The tune Wranglers - She's sweet (Ain't she sweet)
TTITLE5=Modern mountaineers - Everybody's truckin'
TTITLE6=Sons of the west - Sally's got a wooden leg
TTITLE7=Bob Skyles - Rubber dolly
TTITLE8=Port Arthur - Jeep's blues
TTITLE9=Milton Brown - The hesitation blues
TTITLE10=Swift jewels cowboys - You gotta ho-de-ho (to get along with 
TTITLE10=me)
TTITLE11=Bob Wills - Rosetta
TTITLE12=Johnny Lee Wills - Too long
TTITLE13=The high-flyers - Watcha gonna do
TTITLE14=Jimmie Revard - It's a long, long way to Tipperary
TTITLE15=Milton Brown - Down by the O-H-I-O
TTITLE16=Cliff Bruner - One sweet letter from you
TTITLE17=Ocie Stockard - Bass man jive
TTITLE18=The light crust dough boys - Pussy, Pussy, Pussy
TTITLE19=Milton Brown - Some of these days
TTITLE20=Wade Ray and Noel Boggs - It's all your fault
TTITLE21=Pee Wee King - Slow poke
TTITLE22=Bob Wills - Twin guitar special
TTITLE23=Bill mounce - I've found a new baby
TTITLE24=Bob Dunn - Stmpin' at the honky tonk
TTITLE25=Smoky Wood - Keep on truckin'
TTITLE26=Ole Rasmussen - In the mood
TTITLE27=Johnny Lee wills - Watcha know, Joe ?
TTITLE28=Tex Williams - Artistry in western swing
EXTD=
EXTT0=
EXTT1=
EXTT2=
EXTT3=
EXTT4=
EXTT5=
EXTT6=
EXTT7=
EXTT8=
EXTT9=
EXTT10=
EXTT11=
EXTT12=
EXTT13=
EXTT14=
EXTT15=
EXTT16=
EXTT17=
EXTT18=
EXTT19=
EXTT20=
EXTT21=
EXTT22=
EXTT23=
EXTT24=
EXTT25=
EXTT26=
EXTT27=
EXTT28=
PLAYORDER=
